<?xml version="1.0" encoding="UTF-8" standalone="no"?>
<!DOCTYPE svg PUBLIC "-//W3C//DTD SVG 1.1//EN" "http://www.w3.org/Graphics/SVG/1.1/DTD/svg11.dtd">
<svg width="100%" height="100%" viewBox="0 0 1800 1400" version="1.1" xmlns="http://www.w3.org/2000/svg" xmlns:xlink="http://www.w3.org/1999/xlink" xml:space="preserve" xmlns:serif="http://www.serif.com/" style="fill-rule:evenodd;clip-rule:evenodd;stroke-linejoin:round;stroke-miterlimit:2;">
    <g id="Artboard1" transform="matrix(0.99889,0,0,0.951087,-85.9046,-323.37)">
        <rect x="86" y="340" width="1802" height="1472" style="fill:none;"/>
        <g id="Tagirijus-Logo" serif:id="Tagirijus Logo" transform="matrix(1.00111,0,0,1.05143,7.06089,-83.2706)">
            <path d="M768.778,1735.87C890.053,1599.81 976.347,1387.91 993.29,1262C1011.41,1127.33 1000.02,993.376 957.438,866.114C914.284,737.151 885.305,702.527 787.708,653.435C669.361,593.904 531.591,601.546 388.917,670.37C313.641,712.092 244.813,756.848 182.203,824.673C211.574,687.466 342.514,560.51 462.985,510.496C583.667,462.769 745.629,456.199 842.527,504.041C935.633,550.011 1024.09,626.551 1106.3,680.081C1181.09,728.776 1240.74,751.441 1333.1,750.09C1539.69,747.069 1693.02,625.094 1775.5,533.772C1736.24,746.098 1531.69,853.625 1414.05,878.39C1313.59,899.537 1218.08,895.084 1138.12,870.735C1151.88,984.924 1162.63,1112.34 1142.42,1230.49C1122.47,1347.09 1071.9,1472.25 1012.97,1554.37C943.306,1651.43 817.759,1733.39 768.778,1735.87Z" style="fill:rgb(115,115,171);fill-rule:nonzero;"/>
        </g>
    </g>
</svg>
